<svg xmlns="http://www.w3.org/2000/svg" width="37" height="32" viewBox="0 0 37 32">
    <g fill="none" fill-rule="nonzero" stroke="#FFF">
        <path fill="#7F7F7F" d="M11.513 1a3.168 3.168 0 0 0-2.902 1.912l-3.917 9.14H2.582a1.58 1.58 0 0 0-1.526 1.999l4.042 14.63A3.17 3.17 0 0 0 8.142 31h20.453a3.163 3.163 0 0 0 3.04-2.316l4.043-14.63a1.588 1.588 0 0 0-.265-1.378 1.583 1.583 0 0 0-1.258-.623h-2.113l-3.92-9.138h.004A3.166 3.166 0 0 0 25.22 1H11.513zm0 3.158h13.708l3.383 7.895H8.133l3.38-7.895zM4.654 15.21h27.428l-3.49 12.631H8.141L4.654 15.211z"/>
        <path fill="#21409a" d="M12.053 18.368a1.58 1.58 0 0 0-1.58 1.58v3.157a1.58 1.58 0 0 0 3.159 0v-3.158a1.58 1.58 0 0 0-1.58-1.579zM18.368 18.368a1.58 1.58 0 0 0-1.579 1.58v3.157a1.58 1.58 0 0 0 3.158 0v-3.158a1.58 1.58 0 0 0-1.579-1.579zM24.684 18.368a1.58 1.58 0 0 0-1.579 1.58v3.157a1.58 1.58 0 0 0 3.158 0v-3.158a1.58 1.58 0 0 0-1.579-1.579z"/>
    </g>
</svg>
