<svg xmlns="http://www.w3.org/2000/svg" width="32" height="30" viewBox="0 0 32 30">
    <g fill="none" fill-rule="nonzero" stroke="#FFF">
        <path fill="#7F7F7F" d="M16 17.333c-2.908 0-6.355.683-9.251 1.827-1.449.571-2.758 1.25-3.806 2.122C1.896 22.154 1 23.332 1 24.833V27a2 2 0 0 0 2 2h26a2 2 0 0 0 2-2v-2.167c0-1.5-.896-2.68-1.943-3.551-1.048-.872-2.357-1.55-3.806-2.122-2.896-1.144-6.343-1.827-9.251-1.827zm0 3.334c2.357 0 5.577.623 8.03 1.591 1.228.485 2.265 1.062 2.894 1.586.63.524.743.88.743.99v.833H4.333v-.834c0-.109.113-.465.743-.99.63-.523 1.666-1.1 2.893-1.585 2.454-.968 5.674-1.591 8.031-1.591z"/>
        <path fill="#21409a" d="M16 1c-3.662 0-6.667 3.005-6.667 6.667s3.005 6.666 6.667 6.666 6.667-3.004 6.667-6.666C22.667 4.005 19.662 1 16 1z"/>
        <path fill="#FFF" d="M16 4.333a3.308 3.308 0 0 1 3.333 3.334A3.308 3.308 0 0 1 16 11a3.308 3.308 0 0 1-3.333-3.333A3.308 3.308 0 0 1 16 4.333z"/>
    </g>
</svg>
